<?xml version="1.0" standalone="no"?><svg xmlns="http://www.w3.org/2000/svg" viewBox="0 0 1440 320"><path fill="#000000" fill-opacity="0.95" d="M0,160L24,176C48,192,96,224,144,208C192,192,240,128,288,85.3C336,43,384,21,432,58.7C480,96,528,192,576,218.7C624,245,672,203,720,202.7C768,203,816,245,864,234.7C912,224,960,160,1008,128C1056,96,1104,96,1152,128C1200,160,1248,224,1296,245.3C1344,267,1392,245,1416,234.7L1440,224L1440,320L1416,320C1392,320,1344,320,1296,320C1248,320,1200,320,1152,320C1104,320,1056,320,1008,320C960,320,912,320,864,320C816,320,768,320,720,320C672,320,624,320,576,320C528,320,480,320,432,320C384,320,336,320,288,320C240,320,192,320,144,320C96,320,48,320,24,320L0,320Z"></path></svg>